<svg height="472pt" viewBox="-23 0 472 472.01296" width="472pt" xmlns="http://www.w3.org/2000/svg"><g fill="#c0f5f9"><path d="m283.519531 105.175781 22.628907-22.625 11.3125 11.3125-22.628907 22.628907zm0 0"/><path d="m317.464844 120.585938 16.96875-16.972657 11.3125 11.316407-16.96875 16.96875zm0 0"/><path d="m283.019531 155.027344 23.132813-23.132813 11.3125 11.3125-23.132813 23.132813zm0 0"/><path d="m258.351562 130.355469 13.859376-13.859375 11.3125 11.316406-13.859376 13.859375zm0 0"/><path d="m347.71875 137.183594 22.628906-22.625 11.3125 11.3125-22.628906 22.628906zm0 0"/><path d="m322.550781 162.355469 13.859375-13.859375 11.3125 11.316406-13.859375 13.859375zm0 0"/></g><path d="m362.71875 128.011719c-25.886719.003906-49.222656-15.589844-59.128906-39.507813-9.910156-23.914062-4.433594-51.441406 13.871094-69.746094 24.996093-25.003906 65.527343-25.011718 90.53125-.015624 25 24.992187 25.007812 65.523437.015624 90.527343-11.988281 12.046875-28.296874 18.796875-45.289062 18.742188zm-39.601562-103.597657" fill="#e8b35c"/><path d="m160.007812 280.011719h64v96h-64zm0 0" fill="#99d8aa"/><path d="m48.007812 280.011719h64v96h-64zm0 0" fill="#99d8aa"/><path d="m272.007812 280.011719h64v96h-64zm0 0" fill="#99d8aa"/><path d="m48.007812 280.011719h24v96h-24v40h64v-40h-24v-96h24v-40h-64zm0 0" fill="#85bc94"/><path d="m160.007812 280.011719h24v96h-24v40h64v-40h-24v-96h24v-40h-64zm0 0" fill="#85bc94"/><path d="m336.007812 280.011719v-40h-64v40h24v96h-24v40h64v-40h-24v-96zm0 0" fill="#85bc94"/><path d="m362.726562 96.011719c-.511718 0-1.023437 0-1.535156 0-7.863281-.375-15.3125-3.636719-20.921875-9.160157-2.203125-1.960937-3.144531-4.980468-2.453125-7.847656.691406-2.867187 2.90625-5.121094 5.761719-5.863281 2.859375-.746094 5.890625.144531 7.890625 2.3125 2.816406 2.761719 6.550781 4.382813 10.488281 4.558594 3.929688.171875 7.785157-1.09375 10.847657-3.558594 3.433593-2.394531 8.128906-1.738281 10.773437 1.503906 2.648437 3.242188 2.347656 7.972657-.683594 10.855469-5.691406 4.652344-12.816406 7.195312-20.167969 7.199219zm0 0" fill="#c99b50"/><path d="m379.550781 54.910156c-2.097656-.003906-4.109375-.832031-5.601562-2.304687-5.804688-5.714844-14.976563-6.152344-21.304688-1.015625-2.191406 1.972656-5.289062 2.578125-8.0625 1.578125-2.777343-1-4.773437-3.445313-5.203125-6.367188-.425781-2.917969.785156-5.832031 3.15625-7.585937 12.652344-10.285156 31.011719-9.414063 42.632813 2.023437 2.3125 2.273438 3.023437 5.722657 1.792969 8.730469-1.226563 3.003906-4.148438 4.96875-7.394532 4.972656zm0 0" fill="#c99b50"/><path d="m32.007812 208.011719h320v40h-320zm0 0" fill="#8dc79d"/><path d="m.0078125 216.011719h383.9999995v-32l-192-48-191.9999995 48zm0 0" fill="#99d8aa"/><path d="m184.007812 176.011719h16v16h-16zm0 0" fill="#85bc94"/><path d="m152.007812 176.011719h16v16h-16zm0 0" fill="#85bc94"/><path d="m136.007812 176.011719h-104l-31.9999995 8v8h135.9999995zm0 0" fill="#85bc94"/><path d="m248.007812 176.011719v16h136v-8l-32-8zm0 0" fill="#85bc94"/><path d="m216.007812 176.011719h16v16h-16zm0 0" fill="#85bc94"/><path d="m32.007812 408.011719h320v40h-320zm0 0" fill="#8dc79d"/><path d="m8.007812 440.011719h368v32h-368zm0 0" fill="#99d8aa"/></svg>