<?xml version="1.0" encoding="utf-8"?>
<!-- Generator: Adobe Illustrator 16.0.0, SVG Export Plug-In . SVG Version: 6.00 Build 0)  -->
<!DOCTYPE svg PUBLIC "-//W3C//DTD SVG 1.1//EN" "http://www.w3.org/Graphics/SVG/1.1/DTD/svg11.dtd">
<svg version="1.1" id="Layer_1" focusable="false" xmlns="http://www.w3.org/2000/svg" xmlns:xlink="http://www.w3.org/1999/xlink"
	 x="0px" y="0px" width="1024px" height="768px" viewBox="0 0 1024 768" enable-background="new 0 0 1024 768" xml:space="preserve"
	>
<path fill="#3F79E8" d="M368,222v-60c0-9.9,8.1-18,18-18h60c9.9,0,18,8.1,18,18v60c0,9.9-8.1,18-18,18h-60
	C376.1,240,368,231.9,368,222z M578,240h60c9.9,0,18-8.1,18-18v-60c0-9.9-8.1-18-18-18h-60c-9.9,0-18,8.1-18,18v60
	C560,231.9,568.1,240,578,240z M386,384h60c9.9,0,18-8.1,18-18v-60c0-9.9-8.1-18-18-18h-60c-9.9,0-18,8.1-18,18v60
	C368,375.9,376.1,384,386,384z M578,384h60c9.9,0,18-8.1,18-18v-60c0-9.9-8.1-18-18-18h-60c-9.9,0-18,8.1-18,18v60
	C560,375.9,568.1,384,578,384z M464,510v-60c0-9.9-8.1-18-18-18h-60c-9.9,0-18,8.1-18,18v60c0,9.9,8.1,18,18,18h60
	C455.9,528,464,519.9,464,510z M578,528h60c9.9,0,18-8.1,18-18v-60c0-9.9-8.1-18-18-18h-60c-9.9,0-18,8.1-18,18v60
	C560,519.9,568.1,528,578,528z M848,714v54H176v-54c0-9.9,8.1-18,18-18h29.25V36c0-19.95,16.05-36,36-36h505.5
	c19.95,0,36,16.05,36,36v660H830C839.9,696,848,704.1,848,714z M295.25,694.5H464V594c0-9.9,8.1-18,18-18h60c9.9,0,18,8.1,18,18
	v100.5h168.75v-621L296,72L295.25,694.5z"/>
</svg>
