<svg height="512" viewBox="0 0 512 512" width="512" xmlns="http://www.w3.org/2000/svg"><path d="m24 80h464a0 0 0 0 1 0 0v368a16 16 0 0 1 -16 16h-432a16 16 0 0 1 -16-16v-368a0 0 0 0 1 0 0z" fill="#ebebeb"/><path d="m24 80h464v64h-464z" fill="#428dc5"/><path d="m205.27 231.98a80.734 80.734 0 0 1 -12.14 16 80.037 80.037 0 1 1 12.14-16z" fill="#8dc79d"/><path d="m198.318 227.967a72.639 72.639 0 0 1 -10.918 14.395 72.008 72.008 0 1 1 10.922-14.395z" fill="#aae5c8"/><path d="m205.27 231.98a80.734 80.734 0 0 1 -12.14 16h-41.15a24.025 24.025 0 0 1 -24-24v-16h16v16a8 8 0 0 0 8 8z" fill="#428dc5"/><circle cx="128" cy="328" fill="#dbdbdb" r="24"/><circle cx="128" cy="408" fill="#dbdbdb" r="24"/><path d="m128 336a7.984 7.984 0 0 1 -5.659-2.343l-16-16a8 8 0 0 1 11.314-11.314l10.937 10.937 34.408-27.527a8 8 0 0 1 10 12.494l-40 32a7.977 7.977 0 0 1 -5 1.753z" fill="#dc4d41"/><path d="m200 304h16v16h-16z" fill="#dbdbdb"/><path d="m232 304h88v16h-88z" fill="#dbdbdb"/><path d="m200 336h48v16h-48z" fill="#dbdbdb"/><path d="m264 336h48v16h-48z" fill="#dbdbdb"/><circle cx="272" cy="224" fill="#dbdbdb" r="24"/><path d="m272 232a7.984 7.984 0 0 1 -5.659-2.343l-16-16a8 8 0 0 1 11.314-11.314l10.937 10.937 34.408-27.527a8 8 0 1 1 10 12.494l-40 32a7.977 7.977 0 0 1 -5 1.753z" fill="#dc4d41"/><g fill="#dbdbdb"><path d="m344 200h16v16h-16z"/><path d="m376 200h72v16h-72z"/><path d="m344 232h64v16h-64z"/><path d="m424 232h24v16h-24z"/><path d="m200 384h16v16h-16z"/><path d="m232 384h88v16h-88z"/><path d="m200 416h56v16h-56z"/><path d="m272 416h104v16h-104z"/><rect height="64" rx="16" width="32" x="192" y="48"/><rect height="64" rx="16" width="32" x="96" y="48"/><rect height="64" rx="16" width="32" x="288" y="48"/><rect height="64" rx="16" width="32" x="384" y="48"/></g><path d="m453.37 372.49a80.038 80.038 0 1 1 1.04-36.4 80.008 80.008 0 0 1 -1.04 36.4z" fill="#fbb540"/><path d="m453.37 372.49a80.174 80.174 0 0 1 -75.22 59.51h-2.15l-16-48h-18.88a15.99 15.99 0 0 1 -15.69-12.86l-5.43-27.14 24-8 16-24h48z" fill="#da922a"/><path d="m432 344v32a16 16 0 0 1 -16 16 16 16 0 0 1 -16-16v-64h8z" fill="#834b10"/><path d="m360 344h16v16h-16z" fill="#834b10"/><path d="m135.984 215.984a32.037 32.037 0 0 1 -32-32v-16a8 8 0 0 1 4.422-7.155l16-8 7.156 14.311-11.578 5.789v11.055a16 16 0 1 0 32 0v-11.055l-11.578-5.789 7.156-14.311 16 8a8 8 0 0 1 4.422 7.155v16a32.036 32.036 0 0 1 -32 32z" fill="#4799cf"/></svg>