<?xml version="1.0" encoding="utf-8"?>
<!-- Generator: Adobe Illustrator 16.0.0, SVG Export Plug-In . SVG Version: 6.00 Build 0)  -->
<!DOCTYPE svg PUBLIC "-//W3C//DTD SVG 1.1//EN" "http://www.w3.org/Graphics/SVG/1.1/DTD/svg11.dtd">
<svg version="1.1" id="Layer_1" focusable="false" xmlns="http://www.w3.org/2000/svg" xmlns:xlink="http://www.w3.org/1999/xlink"
	 x="0px" y="0px" width="1024px" height="768px" viewBox="0 0 1024 768" enable-background="new 0 0 1024 768" xml:space="preserve"
	>
<path fill="#3F79E8" d="M872,144h-96l-10.74-21.465c-8.13-16.262-24.749-26.534-42.93-26.535H641.9l-40.921-40.92
	C585.845,39.96,560,50.67,560,72.045v224.76l192,68.565V312h48c53.025,0,96-42.975,96-96v-48C896,154.74,885.26,144,872,144z
	 M704,216c-13.26,0-24-10.74-24-24s10.74-24,24-24s24,10.74,24,24S717.26,216,704,216z M272,336c-26.46,0-48-21.54-48-48
	c0-26.505-21.495-48-48-48s-48,21.495-48,48c0,62.49,40.245,115.275,96,135.15V744c0,13.26,10.74,24,24,24h96
	c13.26,0,24-10.74,24-24V576h240v168c0,13.26,10.74,24,24,24h96c13.26,0,24-10.74,24-24V416.325L527.075,336H272z"/>
</svg>
