<svg height="512" viewBox="0 0 512 512" width="512" xmlns="http://www.w3.org/2000/svg"><path d="m364.1 448a8.082 8.082 0 0 1 -1.394-.122 8 8 0 0 1 -6.5-9.262l10.858-60.692a8 8 0 0 1 15.76 2.767l-10.858 60.691a8 8 0 0 1 -7.866 6.618z" fill="#e4e4e2"/><path d="m332.234 44.785a80 80 0 1 0 -6.5 126.25l33.035 2.248-7.092-32.344a80.03 80.03 0 0 0 -19.443-96.154z" fill="#e4e4e2"/><path d="m384 440h-136l72-32v-56a8 8 0 0 0 -8-8h-48l-7.954-19.885a32 32 0 0 0 -29.711-20.115h-59.965a32 32 0 0 0 -23.917 10.74l-54.453 61.26h-64v112h392v-16a32 32 0 0 0 -32-32z" fill="#e08122"/><g fill="#c16f1d"><path d="m248 448h-16a8 8 0 0 1 -4.438-1.344l-24-16a8 8 0 1 1 8.876-13.312l21.984 14.656h13.578a8 8 0 0 1 0 16z"/><path d="m152 444.2a39.942 39.942 0 0 1 -40-39.978v-52.222a8 8 0 0 1 16 0v52.223a24 24 0 0 0 48 0v-68.223a8 8 0 0 1 16 0v68.223a39.942 39.942 0 0 1 -40 39.977z"/><path d="m232 368a8 8 0 0 1 -8-8v-8a8 8 0 0 1 16 0v8a8 8 0 0 1 -8 8z"/><path d="m288 344v18a14 14 0 0 0 14 14h18v-24a8 8 0 0 0 -8-8z"/></g><path d="m326.538 83.157h-28v-28h-32v28h-28v32h28v28h32v-28h28z" fill="#6b9777"/><path d="m400.181 373.235-26.405 11.609-20.872-19.91 23.519-133.951 47.276 8.301z" fill="#6cbae5"/><path d="m423.7 239.28-8.3 47.28-15.76-2.77-15.76-2.76-15.76-2.77 8.3-47.28 15.76 2.77 15.76 2.76z" fill="#e4e4e2"/><path d="m416.24 189.24-8.3 47.27-15.76-2.76 8.3-47.28z" fill="#cbcbcb"/><path d="m371.908 250.77h48.003v16h-48.003z" fill="#c3c3c3" transform="matrix(.173 -.985 .985 .173 72.582 603.974)"/><path d="m390.046 304.003h16v24h-16z" fill="#3775a4" transform="matrix(.173 -.985 .985 .173 17.969 653.406)"/><path d="m384.513 335.521h16v24h-16z" fill="#3775a4" transform="matrix(.173 -.985 .985 .173 -17.651 674.023)"/><path d="m432.01 200.3a8.082 8.082 0 0 1 -1.394-.122l-47.277-8.3a8 8 0 1 1 2.767-15.758l47.278 8.3a8 8 0 0 1 -1.374 15.88z" fill="#c3c3c3"/></svg>