<?xml version="1.0" encoding="utf-8"?>
<svg id="master-artboard" viewBox="0 0 1024 768" version="1.1" xmlns="http://www.w3.org/2000/svg" x="0px" y="0px" style="enable-background:new 0 0 1400 980;" width="1024px" height="768px"><defs><style id="ee-google-fonts">@import url(https://fonts.googleapis.com/css?family=Rubik:300,300italic,400,400italic,500,500italic,700,700italic,900,900italic);</style></defs><rect id="ee-background" x="0" y="0" width="1024" height="768" style="fill: white; fill-opacity: 1; pointer-events: none;"/>








































<g transform="matrix(1.148903250694275, 0, 0, 1.3037197589874268, 138.32127406373138, 52.43237411866784)"><path fill="currentColor" d="M624 448H512V50.8C512 22.78 490.47 0 464 0H175.99c-26.47 0-48 22.78-48 50.8V448H16c-8.84 0-16 7.16-16 16v32c0 8.84 7.16 16 16 16h608c8.84 0 16-7.16 16-16v-32c0-8.84-7.16-16-16-16zM415.99 288c-17.67 0-32-14.33-32-32s14.33-32 32-32 32 14.33 32 32c.01 17.67-14.32 32-32 32z" style="fill: rgb(63, 121, 232);"/></g></svg>