<?xml version="1.0" encoding="utf-8"?>
<!-- Generator: Adobe Illustrator 16.0.0, SVG Export Plug-In . SVG Version: 6.00 Build 0)  -->
<!DOCTYPE svg PUBLIC "-//W3C//DTD SVG 1.1//EN" "http://www.w3.org/Graphics/SVG/1.1/DTD/svg11.dtd">
<svg version="1.1" id="Layer_1" focusable="false" xmlns="http://www.w3.org/2000/svg" xmlns:xlink="http://www.w3.org/1999/xlink"
	 x="0px" y="0px" width="1024px" height="768px" viewBox="0 0 1024 768" enable-background="new 0 0 1024 768" xml:space="preserve"
	>
<path fill="#3F79E8" d="M881.45,286.2c5.85-4.65,14.55-0.3,14.55,7.05V600c0,39.75-32.25,72-72,72H200c-39.75,0-72-32.25-72-72
	V293.4c0-7.5,8.55-11.7,14.55-7.05c33.6,26.1,78.15,59.25,231.15,170.4c31.65,23.1,85.05,71.7,138.3,71.4
	c53.55,0.449,108-49.2,138.45-71.4C803.45,345.6,847.85,312.3,881.45,286.2z M512,480c34.8,0.6,84.9-43.8,110.1-62.1
	C821.15,273.45,836.3,260.85,882.2,224.85c8.7-6.75,13.8-17.25,13.8-28.35V168c0-39.75-32.25-72-72-72H200c-39.75,0-72,32.25-72,72
	v28.5c0,11.1,5.1,21.45,13.8,28.35c45.9,35.85,61.05,48.6,260.1,193.05C427.1,436.2,477.2,480.6,512,480L512,480z"/>
</svg>
