<?xml version="1.0" encoding="utf-8"?>
<!-- Generator: Adobe Illustrator 16.0.0, SVG Export Plug-In . SVG Version: 6.00 Build 0)  -->
<!DOCTYPE svg PUBLIC "-//W3C//DTD SVG 1.1//EN" "http://www.w3.org/Graphics/SVG/1.1/DTD/svg11.dtd">
<svg version="1.1" id="Layer_1" focusable="false" xmlns="http://www.w3.org/2000/svg" xmlns:xlink="http://www.w3.org/1999/xlink"
	 x="0px" y="0px" width="1024px" height="768px" viewBox="0 0 1024 768" enable-background="new 0 0 1024 768" xml:space="preserve"
	>
<path fill="#3F79E8" d="M670.4,456.9C631.55,469.35,573.8,476.55,512,476.55s-119.4-7.2-158.4-19.649
	c-14.7-4.65-29.1,7.949-26.55,22.949c11.85,70.801,106.95,120,184.95,120s172.95-49.35,184.95-120
	C699.35,465.15,685.4,452.25,670.4,456.9L670.4,456.9z M441.2,383.55c6.75,1.8,13.8-2.25,15.75-9l29.1-104.85
	c8.4-30.45-11.1-61.65-43.2-66.75c-27.899-4.5-54.6,14.7-62.25,41.85l-3,10.65l-10.65-2.85c-27.3-7.05-57.3,6.45-67.35,33
	c-11.55,30.3,5.7,62.85,36.3,70.8L441.2,383.55L441.2,383.55z M724.4,285.6c-10.051-26.4-40.051-40.05-67.351-33l-10.649,2.85
	l-3-10.65c-7.5-27.15-34.2-46.35-62.25-41.85c-32.101,5.1-51.601,36.3-43.2,66.75l29.1,104.85c1.8,6.75,8.851,10.8,15.75,9
	l105.3-27.3C718.7,348.3,735.95,315.9,724.4,285.6L724.4,285.6z M512,12c-205.5,0-372,166.5-372,372s166.5,372,372,372
	s372-166.5,372-372S717.5,12,512,12z M512,684c-165.45,0-300-134.55-300-300S346.55,84,512,84s300,134.55,300,300
	S677.45,684,512,684z"/>
</svg>
