<?xml version="1.0" encoding="utf-8"?>
<!-- Generator: Adobe Illustrator 16.0.0, SVG Export Plug-In . SVG Version: 6.00 Build 0)  -->
<!DOCTYPE svg PUBLIC "-//W3C//DTD SVG 1.1//EN" "http://www.w3.org/Graphics/SVG/1.1/DTD/svg11.dtd">
<svg version="1.1" id="Layer_1" focusable="false" xmlns="http://www.w3.org/2000/svg" xmlns:xlink="http://www.w3.org/1999/xlink"
	 x="0px" y="0px" width="1024px" height="768px" viewBox="0 0 1024 768" enable-background="new 0 0 1024 768" xml:space="preserve"
	>
<path fill="#3F79E8" d="M492.95,375.75c10.5,11.1,27.6,11.1,38.25,0l163.35-171.3c47.4-49.8,44.7-132.3-8.399-178.2
	C639.95-13.8,571.1-6.6,528.8,37.8L512,55.35l-16.65-17.4C453.05-6.6,384.2-13.8,338,26.25c-52.95,45.9-55.8,128.4-8.4,178.2
	L492.95,375.75z M927.95,492.15c-17.7-16.051-45.3-15-63.9,0L725.45,603c-16.95,13.65-38.101,21-60,21H488c-13.2,0-24-10.8-24-24
	s10.8-24,24-24h117.45c23.85,0,46.05-16.35,49.95-39.9c4.949-30-18.15-56.1-47.4-56.1H368c-40.5,0-79.65,13.95-111.15,39.45
	L187.1,576H104c-13.2,0-24,10.8-24,24v144c0,13.2,10.8,24,24,24h535.2c21.75,0,42.899-7.35,60-21L926,565.5
	C948.8,547.35,950.601,512.55,927.95,492.15z"/>
</svg>
