<svg height="431pt" viewBox="-15 0 431 431.832" width="431pt" xmlns="http://www.w3.org/2000/svg"><path d="m198.742188 170.527344-82.398438-91.710938c-15.78125-17.5625-15.929688-44.15625-.34375-61.894531l.945312-1.089844c8.847657-10.0625 21.597657-15.832031 35-15.832031h4.527344c14.152344 0 27.539063 6.433594 36.382813 17.488281l18.007812 22.511719 18.007813-22.511719c8.839844-11.035156 22.207031-17.4648435 36.34375-17.472656h3c14.277344-.0039062 27.769531 6.542969 36.601562 17.761719 13.824219 17.550781 13.246094 42.445312-1.382812 59.335937l-80.699219 93.199219c-3.003906 3.46875-7.355469 5.480469-11.945313 5.519531-4.589843.042969-8.976562-1.890625-12.046874-5.304687zm0 0" fill="#f55648"/><g fill="#f9d7c0"><path d="m176.414062 303.832031h-40l-48-64v-96c0-13.253906-10.742187-24-24-24-13.253906 0-24 10.746094-24 24v118.679688c0 6.085937 1.734376 12.046875 5 17.183593l51 80.136719v72h112v-96c0-17.671875-14.324218-32-32-32zm0 0"/><path d="m136.414062 303.832031-48-64v-64c0-13.253906 10.746094-24 24-24 13.257813 0 24 10.746094 24 24zm0 0"/><path d="m118.816406 249.433594c-8.191406 8.195312-8.910156 21.238281-1.671875 30.285156l19.269531 24.113281v48h72v-19.433593c0-18.179688-7.730468-35.5-21.261718-47.636719l-45.726563-41.027344c-8.011719-2.402344-16.695312-.214844-22.609375 5.699219zm0 0"/><path d="m184.414062 303.832031h-48l-48-64v-96c0-13.253906-10.742187-24-24-24-13.253906 0-24 10.746094-24 24v118.679688c0 6.085937 1.734376 12.046875 5 17.183593l51 80.136719v72h112v-104c0-13.253906-10.742187-24-24-24zm0 0"/></g><path d="m136.414062 303.832031-48-64v-64c0-13.253906 10.746094-24 24-24 13.257813 0 24 10.746094 24 24zm0 0" fill="#eecdb8"/><path d="m240.414062 303.832031h40l48-64v-96c0-13.253906 10.746094-24 24-24 13.257813 0 24 10.746094 24 24v118.679688c.003907 6.085937-1.730468 12.046875-5 17.183593l-51 80.136719v72h-112v-96c0-17.671875 14.328126-32 32-32zm0 0" fill="#f9d7c0"/><path d="m280.414062 303.832031 48-64v-64c0-13.253906-10.742187-24-24-24-13.253906 0-24 10.746094-24 24zm0 0" fill="#f9d7c0"/><path d="m298.015625 249.433594c8.191406 8.195312 8.910156 21.238281 1.671875 30.285156l-19.273438 24.113281v48h-72v-19.433593c.003907-18.179688 7.734376-35.5 21.265626-47.636719l45.726562-41.027344c8.011719-2.402344 16.695312-.214844 22.609375 5.699219zm0 0" fill="#f9d7c0"/><path d="m232.414062 303.832031h48l48-64v-96c0-13.253906 10.746094-24 24-24 13.257813 0 24 10.746094 24 24v118.679688c.003907 6.085937-1.730468 12.046875-5 17.183593l-51 80.136719v72h-112v-104c0-13.253906 10.746094-24 24-24zm0 0" fill="#f9d7c0"/><path d="m280.414062 303.832031 48-64v-64c0-13.253906-10.742187-24-24-24-13.253906 0-24 10.746094-24 24zm0 0" fill="#eecdb8"/><path d="m352.414062 31.832031h16v16h-16zm0 0" fill="#ffc5c3"/><path d="m384.414062 31.832031h16v16h-16zm0 0" fill="#ffc5c3"/><path d="m368.414062 15.832031h16v16h-16zm0 0" fill="#ffc5c3"/><path d="m368.414062 47.832031h16v16h-16zm0 0" fill="#ffc5c3"/><path d="m.414062 55.832031h16v16h-16zm0 0" fill="#f3bbb9"/><path d="m48.414062 55.832031h16v16h-16zm0 0" fill="#f3bbb9"/><path d="m24.414062 31.832031h16v16h-16zm0 0" fill="#f3bbb9"/><path d="m24.414062 79.832031h16v16h-16zm0 0" fill="#f3bbb9"/><path d="m118.816406 249.433594c-8.191406 8.195312-8.910156 21.238281-1.671875 30.285156l19.269531 24.113281v48h72v-19.433593c0-18.179688-7.730468-35.5-21.261718-47.636719l-45.726563-41.027344c-8.011719-2.402344-16.695312-.214844-22.609375 5.699219zm0 0" fill="#f9d7c0"/><path d="m298.015625 249.433594c8.191406 8.195312 8.910156 21.238281 1.671875 30.285156l-19.273438 24.113281v48h-72v-19.433593c.003907-18.179688 7.734376-35.5 21.265626-47.636719l45.726562-41.027344c8.011719-2.402344 16.695312-.214844 22.609375 5.699219zm0 0" fill="#f9d7c0"/><path d="m328.414062 239.832031-63.335937 98v-13.335937zm0 0" fill="#eecdb8"/><path d="m89.078125 239.832031 63.335937 98v-13.335937zm0 0" fill="#eecdb8"/></svg>