<svg height="464pt" viewBox="0 0 464 464" width="464pt" xmlns="http://www.w3.org/2000/svg"><path d="m328 464h-192c-8.835938 0-16-7.164062-16-16s7.164062-16 16-16h32l32-48h64l40 48h24c8.835938 0 16 7.164062 16 16s-7.164062 16-16 16zm0 0" fill="#d9d9d9"/><path d="m32 0h400c17.671875 0 32 14.328125 32 32v320c0 17.671875-14.328125 32-32 32h-400c-17.671875 0-32-14.328125-32-32v-320c0-17.671875 14.328125-32 32-32zm0 0" fill="#d9d9d9"/><path d="m464 320h-464v-288c0-17.671875 14.328125-32 32-32h400c17.671875 0 32 14.328125 32 32zm0 0" fill="#5abcf3"/><path d="m447.144531 432c-1.890625.003906-3.703125-.746094-5.039062-2.082031-1.335938-1.335938-2.082031-3.148438-2.082031-5.039063v-80.878906c0-35.347656-28.652344-64-64-64h-32.023438c-35.347656 0-64 28.652344-64 64v80.878906c.003906 1.890625-.746094 3.703125-2.082031 5.039063-1.335938 1.335937-3.148438 2.085937-5.039063 2.082031-8.039062-.179688-15.046875 5.429688-16.640625 13.3125-.789062 4.644531.503907 9.402344 3.542969 13.003906 3.039062 3.601563 7.507812 5.679688 12.21875 5.683594h176c5.136719-.015625 9.953125-2.488281 12.960938-6.652344 3.007812-4.164062 3.839843-9.515625 2.238281-14.394531-2.414063-6.746094-8.894531-11.167969-16.054688-10.953125zm0 0" fill="#99d8aa"/><path d="m372.425781 365.265625-17.699219-8.839844c-1.675781-.839843-2.734374-2.550781-2.734374-4.425781s1.058593-3.585938 2.734374-4.425781c3.316407-1.652344 7.214844-1.652344 10.53125 0l7.15625 3.585937c3.957032 1.976563 8.761719.371094 10.738282-3.585937 1.976562-3.953125.371094-8.757813-3.585938-10.734375l-7.152344-3.574219c-1.425781-.660156-2.90625-1.195313-4.421874-1.601563v-11.664062h-15.992188v11.671875c-1.515625.40625-2.992188.941406-4.414062 1.601563-7.101563 3.546874-11.585938 10.800781-11.585938 18.734374 0 7.9375 4.484375 15.191407 11.585938 18.734376l17.695312 8.84375c1.675781.835937 2.734375 2.546874 2.734375 4.421874s-1.058594 3.585938-2.734375 4.425782c-3.316406 1.652344-7.214844 1.652344-10.527344 0l-7.160156-3.585938c-3.957031-1.976562-8.761719-.371094-10.738281 3.585938-1.972657 3.953125-.371094 8.757812 3.585937 10.734375l7.152344 3.574219c1.425781.660156 2.90625 1.195312 4.421875 1.601562v11.65625h16v-11.671875c1.515625-.40625 2.992187-.941406 4.417969-1.601563 7.097656-3.546874 11.582031-10.800781 11.582031-18.734374 0-7.9375-4.484375-15.191407-11.582031-18.734376zm0 0" fill="#85bc94"/><path d="m367.824219 46.535156c0-.070312 0-.144531 0-.214844-.226563-1.054687-.660157-2.054687-1.28125-2.9375-.039063-.054687-.109375-.085937-.152344-.144531-.039063-.054687-.039063-.109375-.078125-.160156-.183594-.238281-.472656-.34375-.679688-.550781-.535156-.585938-1.152343-1.085938-1.832031-1.488282-.359375-.167968-.734375-.308593-1.113281-.421874-.671875-.257813-1.378906-.417969-2.09375-.480469-.210938-.015625-.386719-.136719-.59375-.136719h-32c-4.417969 0-8 3.582031-8 8s3.582031 8 8 8h6.792969l-111.496094 78.703125-75.722656-37.863281c-2.925781-1.464844-6.449219-1-8.894531 1.175781l-72 64c-3.3125 2.9375-3.617188 8.007813-.679688 11.320313s8.007812 3.617187 11.320312.679687l67.945313-60.414063 75.199219 37.597657c2.636718 1.316406 5.785156 1.078125 8.191406-.625l118.398438-83.574219-2.773438 11.097656c-1.074219 4.285156 1.527344 8.628906 5.816406 9.703125.621094.144531 1.261719.210938 1.902344.199219 3.667969-.003906 6.859375-2.5 7.753906-6.054688l8-32c0-.097656 0-.183593 0-.28125.226563-1.027343.25-2.089843.070313-3.128906zm0 0" fill="#6b9777"/><path d="m312 248c-4.417969 0-8-3.582031-8-8v-120c0-4.417969 3.582031-8 8-8s8 3.582031 8 8v120c0 4.417969-3.582031 8-8 8zm0 0" fill="#277baa"/><path d="m72 248c-4.417969 0-8-3.582031-8-8v-40c0-4.417969 3.582031-8 8-8s8 3.582031 8 8v40c0 4.417969-3.582031 8-8 8zm0 0" fill="#4799cf"/><path d="m120 248c-4.417969 0-8-3.582031-8-8v-72c0-4.417969 3.582031-8 8-8s8 3.582031 8 8v72c0 4.417969-3.582031 8-8 8zm0 0" fill="#277baa"/><path d="m216 248c-4.417969 0-8-3.582031-8-8v-72c0-4.417969 3.582031-8 8-8s8 3.582031 8 8v72c0 4.417969-3.582031 8-8 8zm0 0" fill="#277baa"/><path d="m264 248c-4.417969 0-8-3.582031-8-8v-88c0-4.417969 3.582031-8 8-8s8 3.582031 8 8v88c0 4.417969-3.582031 8-8 8zm0 0" fill="#4799cf"/><path d="m168 248c-4.417969 0-8-3.582031-8-8v-88c0-4.417969 3.582031-8 8-8s8 3.582031 8 8v88c0 4.417969-3.582031 8-8 8zm0 0" fill="#4799cf"/><path d="m48 64h-16v-24c0-4.417969 3.582031-8 8-8h24v16h-16zm0 0" fill="#75caf9"/><path d="m32 80h16v16h-16zm0 0" fill="#75caf9"/><path d="m80 32h16v16h-16zm0 0" fill="#75caf9"/><path d="m112 32h16v16h-16zm0 0" fill="#75caf9"/><path d="m40 344h56v16h-56zm0 0" fill="#ebebeb"/><path d="m112 344h16v16h-16zm0 0" fill="#ebebeb"/><path d="m352 200h16v16h-16zm0 0" fill="#f7ba61"/><path d="m352 168h16v16h-16zm0 0" fill="#f7ba61"/><path d="m352 136h16v16h-16zm0 0" fill="#f7ba61"/><path d="m352 104h16v16h-16zm0 0" fill="#f7ba61"/><path d="m336 248h-288c-4.417969 0-8-3.582031-8-8s3.582031-8 8-8h288c4.417969 0 8 3.582031 8 8s-3.582031 8-8 8zm0 0" fill="#277baa"/><path d="m381.3125 260-13.3125 20h-16l-13.3125-20c-1.746094-2.621094-2.683594-5.699219-2.6875-8.847656v-19.152344l24 8 24-8v19.152344c-.003906 3.148437-.941406 6.226562-2.6875 8.847656zm0 0" fill="#99d8aa"/><path d="m352 288c-4.417969 0-8-3.582031-8-8s3.582031-8 8-8c9.738281.003906 19.410156-1.5625 28.648438-4.648438l11.351562-3.785156c12.933594-4.328125 24.6875-11.59375 34.34375-21.222656 3.140625-3.03125 8.128906-2.988281 11.214844.097656 3.085937 3.085938 3.128906 8.074219.097656 11.214844-11.410156 11.386719-25.304688 19.972656-40.59375 25.085938l-11.351562 3.785156c-10.867188 3.628906-22.253907 5.476562-33.710938 5.472656zm0 0" fill="#85bc94"/><path d="m168 272h128v192h-128zm0 0" fill="#ffc5c3"/><path d="m192 304h80v32h-80zm0 0" fill="#c0f5f9"/><g fill="#eea5a9"><path d="m192 360h16v16h-16zm0 0"/><path d="m224 360h16v16h-16zm0 0"/><path d="m256 360h16v16h-16zm0 0"/><path d="m192 392h16v16h-16zm0 0"/><path d="m224 392h16v16h-16zm0 0"/><path d="m256 392h16v16h-16zm0 0"/><path d="m192 424h16v16h-16zm0 0"/><path d="m224 424h16v16h-16zm0 0"/><path d="m256 424h16v16h-16zm0 0"/></g></svg>