<?xml version="1.0" encoding="utf-8"?>
<svg id="master-artboard" viewBox="0 0 1024 768" version="1.1" xmlns="http://www.w3.org/2000/svg" x="0px" y="0px" style="enable-background:new 0 0 1400 980;" width="1024px" height="768px"><defs><style id="ee-google-fonts">@import url(https://fonts.googleapis.com/css?family=Rubik:300,300italic,400,400italic,500,500italic,700,700italic,900,900italic);</style></defs><rect id="ee-background" x="0" y="0" width="1024" height="768" style="fill: white; fill-opacity: 1; pointer-events: none;"/>








































<g transform="matrix(1.6668851375579834, 0, 0, 1.6668851375579834, 187.58868680908017, -41.26619692871378)"><path fill="currentColor" d="M372 64h-79c-10.7 0-16 12.9-8.5 20.5l16.9 16.9-80.7 80.7c-22.2-14-48.5-22.1-76.7-22.1C64.5 160 0 224.5 0 304s64.5 144 144 144 144-64.5 144-144c0-28.2-8.1-54.5-22.1-76.7l80.7-80.7 16.9 16.9c7.6 7.6 20.5 2.2 20.5-8.5V76c0-6.6-5.4-12-12-12zM144 384c-44.1 0-80-35.9-80-80s35.9-80 80-80 80 35.9 80 80-35.9 80-80 80z" style="fill: rgb(63, 121, 232);"/></g></svg>