<?xml version="1.0" encoding="utf-8"?>
<!-- Generator: Adobe Illustrator 16.0.0, SVG Export Plug-In . SVG Version: 6.00 Build 0)  -->
<!DOCTYPE svg PUBLIC "-//W3C//DTD SVG 1.1//EN" "http://www.w3.org/Graphics/SVG/1.1/DTD/svg11.dtd">
<svg version="1.1" id="Layer_1" focusable="false" xmlns="http://www.w3.org/2000/svg" xmlns:xlink="http://www.w3.org/1999/xlink"
	 x="0px" y="0px" width="1024px" height="768px" viewBox="0 0 1024 768" enable-background="new 0 0 1024 768" xml:space="preserve"
	>
<path fill="#3F79E8" d="M512,12c-205.5,0-372,166.5-372,372s166.5,372,372,372s372-166.5,372-372S717.5,12,512,12z M512,684
	c-165.45,0-300-134.55-300-300S346.55,84,512,84s300,134.55,300,300S677.45,684,512,684z M392,360c26.55,0,48-21.45,48-48
	s-21.45-48-48-48s-48,21.45-48,48S365.45,360,392,360z M632,264c-26.55,0-48,21.45-48,48s21.45,48,48,48s48-21.45,48-48
	S658.55,264,632,264z M644,480H380c-19.8,0-36,16.2-36,36s16.2,36,36,36h264c19.8,0,36-16.2,36-36S663.8,480,644,480z"/>
</svg>
