<svg height="512" viewBox="0 0 512 512" width="512" xmlns="http://www.w3.org/2000/svg"><path d="m64 488h32 352v-205.09-66.91l-191.51-191.51-.49-.49-.48.49-191.52 191.51z" fill="#cd9c7a"/><g fill="#bd9070"><path d="m88 240h336v16h-336z"/><path d="m96 288h80v16h-80z"/><path d="m96 336h64v16h-64z"/><path d="m96 384h64v16h-64z"/><path d="m96 432h64v16h-64z"/><path d="m336 288h88v16h-88z"/><path d="m352 336h64v16h-64z"/></g><path d="m256 248a104 104 0 0 1 104 104v136a0 0 0 0 1 0 0h-208a0 0 0 0 1 0 0v-136a104 104 0 0 1 104-104z" fill="#cbcbcb"/><path d="m328 488h-144v-136a72 72 0 0 1 72-72 72 72 0 0 1 72 72z" fill="#85654f"/><path d="m328 160h-144l8-16h128z" fill="#bd9070"/><path d="m128 192h256v16h-256z" fill="#bd9070"/><path d="m64 282.91v205.09h32v-237.09z" fill="#bd9070"/><path d="m416 250.91v237.09h32v-205.09z" fill="#bd9070"/><path d="m473.971 357.724a32 32 0 1 0 -58.311-1.1l-58.816 25.232a32 32 0 1 0 -39.388 43.012 32 32 0 1 0 58.311 1.1l58.817-25.232a32 32 0 1 0 39.387-43.012z" fill="#eaeae8"/><path d="m486.049 378.658a24.029 24.029 0 0 0 -31.52-12.594l-6.306-14.705a40.049 40.049 0 0 1 52.529 20.991z" fill="#dbdbdb"/><path d="m487.427 488h-208l16-64h176z" fill="#fbb540"/><path d="m488 255.03-33.94 33.94-198.06-198.06-198.06 198.06-33.94-33.94 231.03-231.03.97.97.97-.97z" fill="#a07a5f"/><path d="m488 255.03-21.94 21.94-210.06-210.06-210.06 210.06-21.94-21.94 231.03-231.03.97.97.97-.97z" fill="#bd9070"/><path d="m200 152h112v48h-112z" fill="#e4e4e2"/><path d="m224 168h16v16h-16z" fill="#c3c3c3"/><path d="m256 168h32v16h-32z" fill="#c3c3c3"/></svg>