<?xml version="1.0" encoding="utf-8"?>
<!-- Generator: Adobe Illustrator 16.0.0, SVG Export Plug-In . SVG Version: 6.00 Build 0)  -->
<!DOCTYPE svg PUBLIC "-//W3C//DTD SVG 1.1//EN" "http://www.w3.org/Graphics/SVG/1.1/DTD/svg11.dtd">
<svg version="1.1" id="Layer_1" focusable="false" xmlns="http://www.w3.org/2000/svg" xmlns:xlink="http://www.w3.org/1999/xlink"
	 x="0px" y="0px" width="1024px" height="768px" viewBox="0 0 1024 768" enable-background="new 0 0 1024 768" xml:space="preserve"
	>
<path fill="#3F79E8" d="M776,48H248c-39.765,0-72,32.235-72,72v528c0,39.765,32.235,72,72,72h528c39.765,0,72-32.235,72-72V120
	C848,80.235,815.765,48,776,48z M751.415,509.055l-22.5,97.5C726.562,616.763,717.476,623.995,707,624c-240,0-435-194.565-435-435
	c0.367-10.345,7.445-19.238,17.445-21.915l97.5-22.5c1.664-0.352,3.355-0.547,5.055-0.585c8.861,0.447,16.781,5.668,20.685,13.635
	l45,105c1.103,2.831,1.717,5.829,1.815,8.865c-0.366,6.661-3.328,12.913-8.25,17.415l-56.835,46.5
	c34.438,72.989,93.182,131.732,166.17,166.17l46.5-56.835c4.503-4.922,10.754-7.884,17.415-8.25
	c3.036,0.098,6.034,0.711,8.865,1.815l105,45C746.337,487.214,751.56,495.137,752,504C751.97,505.7,751.774,507.393,751.415,509.055
	z"/>
</svg>
