<?xml version="1.0" encoding="utf-8"?>
<!-- Generator: Adobe Illustrator 16.0.0, SVG Export Plug-In . SVG Version: 6.00 Build 0)  -->
<!DOCTYPE svg PUBLIC "-//W3C//DTD SVG 1.1//EN" "http://www.w3.org/Graphics/SVG/1.1/DTD/svg11.dtd">
<svg version="1.1" id="Layer_1" focusable="false" xmlns="http://www.w3.org/2000/svg" xmlns:xlink="http://www.w3.org/1999/xlink"
	 x="0px" y="0px" width="1024px" height="768px" viewBox="0 0 1024 768" enable-background="new 0 0 1024 768" xml:space="preserve"
	>
<path fill="#3F79E8" d="M512,12c-205.5,0-372,166.5-372,372s166.5,372,372,372s372-166.5,372-372S717.5,12,512,12z M512,684
	c-165.45,0-300-134.55-300-300S346.55,84,512,84s300,134.55,300,300S677.45,684,512,684z M392,360c26.55,0,48-21.45,48-48
	s-21.45-48-48-48s-48,21.45-48,48S365.45,360,392,360z M632,360c26.55,0,48-21.45,48-48s-21.45-48-48-48s-48,21.45-48,48
	S605.45,360,632,360z M638,468.9c-31.2,37.5-77.25,59.1-126,59.1s-94.8-21.45-126-59.1c-12.75-15.301-35.55-17.25-50.7-4.65
	c-15.3,12.75-17.25,35.4-4.65,50.7c45,54,111.15,84.899,181.35,84.899s136.35-30.899,181.35-84.899
	c12.75-15.3,10.65-37.95-4.649-50.7C673.55,451.65,650.75,453.6,638,468.9z"/>
</svg>
