<svg height="512" viewBox="0 0 512 512" width="512" xmlns="http://www.w3.org/2000/svg"><path d="m104 138.687a8 8 0 0 1 -8-8v-62.112a23.87 23.87 0 0 1 13.268-21.467c.1-.052.21-.1.316-.149l15.155-6.759a8 8 0 0 1 6.522 14.61l-14.969 6.681a7.955 7.955 0 0 0 -4.292 7.084v62.112a8 8 0 0 1 -8 8z" fill="#eaeae8"/><path d="m264 138.687a8 8 0 0 1 -8-8v-62.112a7.955 7.955 0 0 0 -4.292-7.089l-14.969-6.681a8 8 0 0 1 6.522-14.61l15.155 6.764c.106.047.212.1.316.149a23.87 23.87 0 0 1 13.268 21.467v62.112a8 8 0 0 1 -8 8z" fill="#eaeae8"/><path d="m120 34.686 8 24 24.542-4.908a15.032 15.032 0 0 0 11.635-18.385 15.032 15.032 0 0 0 -20.166-10.311z" fill="#e08122"/><path d="m248 34.686-8 24-24.542-4.908a15.032 15.032 0 0 1 -11.635-18.385 15.032 15.032 0 0 1 20.166-10.311z" fill="#e08122"/><path d="m248 130.686v16a64 64 0 0 1 -64 64 64 64 0 0 1 -64-64v-16h-32v16a96.023 96.023 0 0 0 80 94.666v30.648h32v-30.648a96.023 96.023 0 0 0 80-94.666v-16z" fill="#6b9777"/><path d="m384 352h-32v28a76 76 0 0 1 -76 76 76 76 0 0 1 -76-76v-108h-32v108a108 108 0 0 0 108 108 108 108 0 0 0 108-108z" fill="#5e8569"/><path d="m352 312h32v40h-32z" fill="#cbcbcb"/><path d="m128 272h16v16h-16z" fill="#fbedbf"/><path d="m128 304h16v16h-16z" fill="#fbedbf"/><path d="m128 336h16v32h-16z" fill="#fbedbf"/><circle cx="368" cy="272" fill="#ebebeb" r="48"/><g fill="#8f563b"><path d="m376 288h-16a8 8 0 0 1 0-16h16a8 8 0 0 1 0 16z"/><circle cx="384" cy="264" r="8"/><circle cx="368" cy="256" r="8"/><circle cx="352" cy="264" r="8"/></g></svg>